<svg width="23" height="22" viewBox="0 0 23 22" fill="none" xmlns="http://www.w3.org/2000/svg">
<path fill-rule="evenodd" clip-rule="evenodd" d="M6.59439 0.066C7.76739 0.012 8.14139 0 11.1294 0C14.1174 0 14.4914 0.013 15.6634 0.066C16.8354 0.119 17.6354 0.306 18.3354 0.577C19.0684 0.854 19.7334 1.287 20.2834 1.847C20.8434 2.396 21.2754 3.06 21.5514 3.794C21.8234 4.494 22.0094 5.294 22.0634 6.464C22.1174 7.639 22.1294 8.013 22.1294 11C22.1294 13.988 22.1164 14.362 22.0634 15.535C22.0104 16.705 21.8234 17.505 21.5514 18.205C21.2754 18.9391 20.8427 19.6042 20.2834 20.154C19.7334 20.714 19.0684 21.146 18.3354 21.422C17.6354 21.694 16.8354 21.88 15.6654 21.934C14.4914 21.988 14.1174 22 11.1294 22C8.14139 22 7.76739 21.987 6.59439 21.934C5.42439 21.881 4.62439 21.694 3.92439 21.422C3.19032 21.146 2.52521 20.7133 1.97539 20.154C1.41577 19.6047 0.982709 18.9399 0.706395 18.206C0.435395 17.506 0.249395 16.706 0.195395 15.536C0.141395 14.361 0.129395 13.987 0.129395 11C0.129395 8.012 0.142395 7.638 0.195395 6.466C0.248395 5.294 0.435395 4.494 0.706395 3.794C0.983117 3.06008 1.41651 2.39531 1.97639 1.846C2.52543 1.2865 3.18987 0.853443 3.92339 0.577C4.62339 0.306 5.42339 0.12 6.59339 0.066H6.59439ZM15.5744 2.046C14.4144 1.993 14.0664 1.982 11.1294 1.982C8.19239 1.982 7.84439 1.993 6.68439 2.046C5.61139 2.095 5.02939 2.274 4.64139 2.425C4.12839 2.625 3.76139 2.862 3.37639 3.247C3.01144 3.60205 2.73057 4.03428 2.55439 4.512C2.40339 4.9 2.22439 5.482 2.17539 6.555C2.12239 7.715 2.11139 8.063 2.11139 11C2.11139 13.937 2.12239 14.285 2.17539 15.445C2.22439 16.518 2.40339 17.1 2.55439 17.488C2.73039 17.965 3.01139 18.398 3.37639 18.753C3.73139 19.118 4.16439 19.399 4.64139 19.575C5.02939 19.726 5.61139 19.905 6.68439 19.954C7.84439 20.007 8.19139 20.018 11.1294 20.018C14.0674 20.018 14.4144 20.007 15.5744 19.954C16.6474 19.905 17.2294 19.726 17.6174 19.575C18.1304 19.375 18.4974 19.138 18.8824 18.753C19.2474 18.398 19.5284 17.965 19.7044 17.488C19.8554 17.1 20.0344 16.518 20.0834 15.445C20.1364 14.285 20.1474 13.937 20.1474 11C20.1474 8.063 20.1364 7.715 20.0834 6.555C20.0344 5.482 19.8554 4.9 19.7044 4.512C19.5044 3.999 19.2674 3.632 18.8824 3.247C18.5273 2.88207 18.0951 2.60121 17.6174 2.425C17.2294 2.274 16.6474 2.095 15.5744 2.046ZM9.72439 14.391C10.5091 14.7176 11.3828 14.7617 12.1963 14.5157C13.0099 14.2697 13.7128 13.7489 14.185 13.0422C14.6572 12.3356 14.8694 11.4869 14.7854 10.6411C14.7014 9.79534 14.3264 9.00497 13.7244 8.405C13.3406 8.02148 12.8766 7.72781 12.3657 7.54515C11.8548 7.36248 11.3098 7.29536 10.7699 7.34862C10.23 7.40187 9.70855 7.57418 9.2432 7.85313C8.77785 8.13208 8.38014 8.51074 8.0787 8.96185C7.77726 9.41296 7.57958 9.92529 7.49991 10.462C7.42024 10.9986 7.46055 11.5463 7.61793 12.0655C7.77532 12.5847 8.04588 13.0626 8.41012 13.4647C8.77435 13.8668 9.22322 14.1832 9.72439 14.391ZM7.13139 7.002C7.65642 6.47697 8.27971 6.0605 8.96569 5.77636C9.65167 5.49222 10.3869 5.34597 11.1294 5.34597C11.8719 5.34597 12.6071 5.49222 13.2931 5.77636C13.9791 6.0605 14.6024 6.47697 15.1274 7.002C15.6524 7.52702 16.0689 8.15032 16.353 8.8363C16.6372 9.52228 16.7834 10.2575 16.7834 11C16.7834 11.7425 16.6372 12.4777 16.353 13.1637C16.0689 13.8497 15.6524 14.473 15.1274 14.998C14.0671 16.0583 12.6289 16.654 11.1294 16.654C9.62985 16.654 8.19173 16.0583 7.13139 14.998C6.07106 13.9377 5.47537 12.4995 5.47537 11C5.47537 9.50046 6.07106 8.06234 7.13139 7.002ZM18.0374 6.188C18.1675 6.06527 18.2717 5.91768 18.3437 5.75397C18.4157 5.59027 18.4542 5.41377 18.4568 5.23493C18.4594 5.05609 18.4261 4.87855 18.3589 4.71281C18.2916 4.54707 18.1918 4.39651 18.0654 4.27004C17.9389 4.14357 17.7883 4.04376 17.6226 3.97652C17.4568 3.90928 17.2793 3.87598 17.1005 3.87858C16.9216 3.88119 16.7451 3.91965 16.5814 3.9917C16.4177 4.06374 16.2701 4.1679 16.1474 4.298C15.9087 4.55103 15.778 4.88712 15.7831 5.23493C15.7882 5.58274 15.9286 5.91488 16.1746 6.16084C16.4205 6.40681 16.7527 6.54723 17.1005 6.5523C17.4483 6.55737 17.7844 6.42669 18.0374 6.188Z" fill="white"/>
</svg>
