<svg width="23" height="22" viewBox="0 0 23 22" fill="none" xmlns="http://www.w3.org/2000/svg">
<path d="M16.2965 13.1842C16.0209 13.0446 14.6782 12.3894 14.4272 12.2959C14.1763 12.2066 13.9941 12.1598 13.8112 12.4355C13.6325 12.7043 13.1059 13.3196 12.945 13.4991C12.7841 13.6785 12.626 13.6923 12.3544 13.5706C12.0787 13.431 11.198 13.1443 10.1524 12.2066C9.33561 11.4799 8.79179 10.5848 8.63023 10.3091C8.46936 10.0368 8.61236 9.88281 8.74848 9.74669C8.87361 9.62156 9.02417 9.43181 9.16373 9.26681C9.29642 9.10181 9.33904 8.99113 9.43598 8.81238C9.52536 8.61919 9.47929 8.46863 9.41123 8.3325C9.34317 8.19637 8.79523 6.84681 8.56629 6.30919C8.34767 5.77569 8.11873 5.84375 7.95029 5.84375C7.79286 5.82931 7.60998 5.82931 7.4278 5.82931C7.24561 5.82931 6.94792 5.89738 6.69698 6.15863C6.44604 6.43431 5.73723 7.09294 5.73723 8.42531C5.73723 9.76112 6.71829 11.0536 6.85442 11.2468C6.99398 11.4256 8.78423 14.1756 11.5308 15.3574C12.186 15.6331 12.6947 15.7981 13.0921 15.9342C13.7473 16.1418 14.3454 16.1129 14.8177 16.0449C15.3402 15.9589 16.4361 15.3821 16.6657 14.7379C16.8988 14.0896 16.8988 13.5527 16.8307 13.431C16.7627 13.3059 16.5839 13.2378 16.3082 13.1161L16.2965 13.1842ZM11.3156 19.9375H11.3012C9.67523 19.9375 8.06786 19.4968 6.66398 18.6732L6.33467 18.4766L2.89717 19.3717L3.82117 16.027L3.59911 15.6833C2.69124 14.2397 2.2096 12.5691 2.20967 10.8639C2.20967 5.87262 6.29548 1.80125 11.3225 1.80125C13.7576 1.80125 16.0422 2.75 17.7609 4.46875C18.6088 5.30653 19.2813 6.30478 19.7393 7.40524C20.1973 8.5057 20.4316 9.68635 20.4284 10.8783C20.4215 15.8661 16.3392 19.9375 11.319 19.9375H11.3156ZM19.0679 3.16181C16.9765 1.14194 14.2265 0 11.3012 0C5.26767 0 0.354795 4.89156 0.351357 10.9031C0.351357 12.8226 0.852545 14.6953 1.81229 16.3529L0.258545 22L6.06655 20.4854C7.67551 21.3529 9.47395 21.8092 11.3019 21.8137H11.3053C17.3422 21.8137 22.2551 16.9221 22.2585 10.9065C22.2585 7.99563 21.1235 5.25594 19.0541 3.19688L19.0679 3.16181Z" fill="white"/>
</svg>
