<svg width="119" height="31" viewBox="0 0 119 31" fill="none" xmlns="http://www.w3.org/2000/svg">
<path d="M0.702 10.046H2.106V1.82H0.702V0.866H4.986V1.82H3.582V5.276H8.982V1.82H7.56V0.866H11.844V1.82H10.44V10.046H11.844V11H7.56V10.046H8.982V6.302H3.582V10.046H4.986V11H0.702V10.046ZM13.0548 10.046H14.3508L17.2848 1.82H16.1508V0.866H21.1008V1.82H19.9308L22.9548 10.046H24.1788V11H20.0568V10.046H21.4068L20.3808 7.094H16.7088L15.7008 10.046H17.0508V11H13.0548V10.046ZM20.0928 6.14L18.6168 1.838H18.5088L16.9968 6.14H20.0928ZM25.4173 10.046H26.7853V1.82H25.4173V0.866H28.8553L32.1673 7.976L35.3173 0.866H38.8093V1.82H37.4413V10.046H38.8093V11H34.7233V10.046H36.0373V2.072L32.2213 10.478H31.7533L27.8833 2.072V10.046H29.1973V11H25.4173V10.046ZM40.2352 10.046H41.6392V1.82H40.2352V0.866H45.2572C46.3852 0.866 47.2432 1.082 47.8312 1.514C48.4312 1.934 48.7312 2.558 48.7312 3.386C48.7312 3.938 48.5932 4.406 48.3172 4.79C48.0412 5.174 47.6692 5.444 47.2012 5.6C47.8732 5.768 48.3832 6.08 48.7312 6.536C49.0912 6.98 49.2712 7.514 49.2712 8.138C49.2712 8.954 48.9772 9.638 48.3892 10.19C47.8012 10.73 46.8832 11 45.6352 11H40.2352V10.046ZM45.1672 5.186C46.5712 5.186 47.2732 4.604 47.2732 3.44C47.2732 2.852 47.0812 2.438 46.6972 2.198C46.3252 1.946 45.7072 1.82 44.8432 1.82H43.1152V5.186H45.1672ZM45.3832 10.046C46.9792 10.046 47.7772 9.392 47.7772 8.084C47.7772 7.496 47.5732 7.034 47.1652 6.698C46.7572 6.35 46.1452 6.176 45.3292 6.176H43.1152V10.046H45.3832ZM56.0406 11.18C54.6006 11.18 53.5326 10.832 52.8366 10.136C52.1526 9.44 51.8106 8.504 51.8106 7.328V1.82H50.4606V0.866H54.6186V1.82H53.2686V7.526C53.2686 8.33 53.5146 8.96 54.0066 9.416C54.5106 9.872 55.2006 10.1 56.0766 10.1C57.0246 10.1 57.7566 9.872 58.2726 9.416C58.8006 8.96 59.0646 8.324 59.0646 7.508V1.82H57.7326V0.866H61.6746V1.82H60.3066V7.454C60.3066 8.666 59.9166 9.59 59.1366 10.226C58.3686 10.862 57.3366 11.18 56.0406 11.18ZM62.7352 10.046H64.1392V1.82H62.7352V0.866H68.0632C69.1432 0.866 69.9832 1.094 70.5832 1.55C71.1952 1.994 71.5012 2.648 71.5012 3.512C71.5012 5.048 70.6312 5.948 68.8912 6.212L71.2132 10.046H72.7072V11H70.2052L67.4872 6.356H66.2452V5.366H67.8292C68.6332 5.366 69.2032 5.192 69.5392 4.844C69.8752 4.484 70.0432 4.046 70.0432 3.53C70.0432 3.026 69.8752 2.618 69.5392 2.306C69.2152 1.982 68.7292 1.82 68.0812 1.82H65.6152V10.046H67.0192V11H62.7352V10.046ZM84.6797 5.888V6.428C84.6797 7.892 84.2357 9.05 83.3477 9.902C82.4597 10.754 81.2057 11.18 79.5857 11.18C78.4337 11.18 77.4377 10.958 76.5977 10.514C75.7697 10.07 75.1337 9.452 74.6897 8.66C74.2577 7.856 74.0417 6.938 74.0417 5.906C74.0417 4.874 74.2757 3.962 74.7437 3.17C75.2117 2.378 75.8597 1.766 76.6877 1.334C77.5277 0.902 78.4817 0.686 79.5497 0.686C80.3057 0.686 80.9777 0.812 81.5657 1.064C82.1537 1.316 82.6397 1.676 83.0237 2.144V0.866H84.1937V3.998H83.1497C82.8257 3.278 82.3577 2.726 81.7457 2.342C81.1337 1.946 80.4197 1.748 79.6037 1.748C78.3797 1.748 77.4077 2.114 76.6877 2.846C75.9797 3.578 75.6257 4.568 75.6257 5.816C75.6257 7.136 75.9857 8.18 76.7057 8.948C77.4257 9.716 78.4037 10.1 79.6397 10.1C80.6957 10.076 81.5537 9.8 82.2137 9.272C82.8737 8.744 83.2157 7.952 83.2397 6.896H81.0977V5.888H84.6797ZM91.5484 11.18C90.1084 11.18 89.0404 10.832 88.3444 10.136C87.6604 9.44 87.3184 8.504 87.3184 7.328V1.82H85.9684V0.866H90.1264V1.82H88.7764V7.526C88.7764 8.33 89.0224 8.96 89.5144 9.416C90.0184 9.872 90.7084 10.1 91.5844 10.1C92.5324 10.1 93.2644 9.872 93.7804 9.416C94.3084 8.96 94.5724 8.324 94.5724 7.508V1.82H93.2404V0.866H97.1824V1.82H95.8144V7.454C95.8144 8.666 95.4244 9.59 94.6444 10.226C93.8764 10.862 92.8444 11.18 91.5484 11.18ZM98.243 10.046H99.647V1.82H98.243V0.866H107.063V3.872H105.929V1.82H101.123V5.258H104.273V4.07H105.011V7.454H104.273V6.248H101.123V10.046H106.019V7.94H107.153V11H98.243V10.046ZM108.72 10.046H110.124V1.82H108.72V0.866H114.048C115.128 0.866 115.968 1.094 116.568 1.55C117.18 1.994 117.486 2.648 117.486 3.512C117.486 5.048 116.616 5.948 114.876 6.212L117.198 10.046H118.692V11H116.19L113.472 6.356H112.23V5.366H113.814C114.618 5.366 115.188 5.192 115.524 4.844C115.86 4.484 116.028 4.046 116.028 3.53C116.028 3.026 115.86 2.618 115.524 2.306C115.2 1.982 114.714 1.82 114.066 1.82H111.6V10.046H113.004V11H108.72V10.046ZM0.702 30.046H2.106V21.82H0.702V20.866H4.986V21.82H3.582V30.046H7.794V26.932H8.982V31H0.702V30.046ZM9.96103 30.046H11.257L14.191 21.82H13.057V20.866H18.007V21.82H16.837L19.861 30.046H21.085V31H16.963V30.046H18.313L17.287 27.094H13.615L12.607 30.046H13.957V31H9.96103V30.046ZM16.999 26.14L15.523 21.838H15.415L13.903 26.14H16.999ZM22.3415 30.046H23.7815V21.82H22.3415V20.866H25.4735L31.2695 29.056V21.82H29.8295V20.866H33.8075V21.82H32.4035V31H30.9455L24.8975 22.378V30.046H26.3375V31H22.3415V30.046ZM34.9973 30.046H36.4013V21.82H34.9973V20.866H40.5053C41.6213 20.866 42.5693 21.1 43.3493 21.568C44.1413 22.036 44.7293 22.654 45.1133 23.422C45.5093 24.178 45.7073 24.982 45.7073 25.834C45.7073 26.842 45.5093 27.736 45.1133 28.516C44.7293 29.296 44.1473 29.908 43.3673 30.352C42.5993 30.784 41.6513 31 40.5233 31H34.9973V30.046ZM40.3793 30.046C41.6633 30.046 42.6173 29.662 43.2413 28.894C43.8773 28.126 44.1953 27.118 44.1953 25.87C44.1953 25.15 44.0573 24.484 43.7813 23.872C43.5053 23.26 43.0853 22.768 42.5213 22.396C41.9573 22.012 41.2613 21.82 40.4333 21.82H37.8773V30.046H40.3793ZM47.482 30.046H48.886V21.82H47.482V20.866H51.784V21.82H50.362V30.046H51.784V31H47.482V30.046ZM53.1856 30.046H54.4816L57.4156 21.82H56.2816V20.866H61.2316V21.82H60.0616L63.0856 30.046H64.3096V31H60.1876V30.046H61.5376L60.5116 27.094H56.8396L55.8316 30.046H57.1816V31H53.1856V30.046ZM60.2236 26.14L58.7476 21.838H58.6396L57.1276 26.14H60.2236Z" fill="white"/>
</svg>
