<?xml version="1.0"?>
<svg xmlns="http://www.w3.org/2000/svg" xmlns:xlink="http://www.w3.org/1999/xlink" xmlns:svgjs="http://svgjs.com/svgjs" version="1.1" width="512" height="512" x="0" y="0" viewBox="0 0 512 512.0021" style="enable-background:new 0 0 512 512" xml:space="preserve" class=""><g><path xmlns="http://www.w3.org/2000/svg" d="m502.367188 195.878906c.015624-18-2.957032-35.113281-8.828126-50.867187-19.417968-52.082031-59.128906-91.910157-118.035156-118.375-67.710937-30.421875-144.085937-34.945313-215.054687-12.746094-3.953125 1.238281-6.15625 5.445313-4.917969 9.398437 1.234375 3.953126 5.441406 6.15625 9.398438 4.921876 67.464843-21.105469 140.0625-16.804688 204.425781 12.109374 55.109375 24.761719 92.160156 61.746094 110.125 109.929688 5.242187 14.066406 7.894531 29.414062 7.882812 45.613281-.003906 5.5625-4.582031 10.082031-10.203125 10.082031h-451.953125c-5.621093 0-10.199219-4.523437-10.203125-10.078124-.011718-16.199219 2.640625-31.546876 7.882813-45.617188 17.960937-48.183594 55.015625-85.167969 110.125-109.929688 3.777343-1.699218 5.46875-6.136718 3.769531-9.917968-1.699219-3.777344-6.140625-5.46875-9.917969-3.765625-58.90625 26.464843-98.621093 66.292969-118.035156 118.375-5.871094 15.753906-8.84375 32.867187-8.828125 50.867187.0117188 13.378906 10.601562 24.339844 23.875 25.035156-.789062 2.273438-1.222656 4.707032-1.222656 7.246094v15.292969c0 8.039063 4.292968 15.089844 10.703125 18.992187l-4.5 8.4375c-2.09375 3.925782-2.710938 8.394532-1.828125 12.667969-2.242188 3.242188-3.5625 7.167969-3.5625 11.402344v41.835937c0 6.214844 2.824218 11.773438 7.25 15.484376-4.773438 5.171874-7.800782 11.929687-8.15625 19.421874-.34375 7.371094 1.839844 14.410157 6.1875 20.195313-9.976563 4.464844-16.945313 14.476563-16.945313 26.09375v22.171875c0 39.617188 32.226563 71.847656 71.84375 71.847656h335.078125c39.613282 0 71.84375-32.230468 71.84375-71.847656v-22.171875c0-11.644531-7.003906-21.679687-17.019531-26.128906 3.667969-4.816407 5.953125-10.714844 6.257813-17.160157.394531-8.375-2.476563-16.324218-8.085938-22.488281 4.386719-3.707031 7.183594-9.238281 7.183594-15.417969v-41.835937c0-4.234375-1.324219-8.160156-3.5625-11.40625.882812-4.273437.261718-8.738281-1.832032-12.664063l-4.496093-8.4375c6.410156-3.902343 10.703125-10.957031 10.703125-18.992187v-15.292969c0-2.539062-.433594-4.976562-1.222656-7.246094 13.269531-.695312 23.859374-11.65625 23.875-25.035156zm-37.65625 32.28125v15.292969c0 3.976563-3.234376 7.210937-7.210938 7.210937h-195.179688l57.867188-29.714843h137.3125c3.976562 0 7.210938 3.234375 7.210938 7.210937zm-177.683594-7.050781-79.449219 40.796875c-7.917969 4.0625-16.28125 4.007812-24.1875-.164062l-77.03125-40.632813zm-110.636719 53.90625c6.199219 3.269531 12.722656 4.90625 19.25 4.90625 6.359375 0 12.726563-1.554687 18.789063-4.671875l18.664062-9.582031h220.632812l6.542969 12.273437c.546875 1.019532.605469 2.226563.160157 3.296875-.246094.601563-.875 1.671875-2.285157 2.105469-6.53125 2.003906-11.367187 5.078125-15.632812 7.789062-6.5 4.136719-12.113281 7.707032-23.886719 7.707032s-17.386719-3.570313-23.886719-7.703125c-7.402343-4.710938-15.796875-10.046875-31.9375-10.046875-16.136719 0-24.527343 5.335937-31.933593 10.046875-6.5 4.132812-12.113282 7.703125-23.882813 7.703125-11.773437 0-17.382813-3.570313-23.882813-7.703125-7.40625-4.710938-15.796874-10.046875-31.933593-10.046875-16.140625 0-24.53125 5.335937-31.9375 10.046875-6.496094 4.132812-12.109375 7.703125-23.878907 7.703125-11.769531 0-17.382812-3.570313-23.882812-7.703125-7.402344-4.710938-15.796875-10.046875-31.933594-10.046875-16.136718 0-24.527344 5.335937-31.929687 10.046875-6.496094 4.132812-12.109375 7.703125-23.878907 7.703125-11.769531 0-17.382812-3.570313-23.878906-7.703125-4.265625-2.714844-9.097656-5.789063-15.628906-7.792969-1.410156-.433594-2.039062-1.503906-2.285156-2.101562-.441406-1.074219-.386719-2.277344.160156-3.300782l6.542969-12.273437h110.035156zm-124.59375 28.777344c7.402344 4.710937 15.796875 10.046875 31.933594 10.046875s24.527343-5.335938 31.929687-10.046875c6.496094-4.132813 12.109375-7.703125 23.878906-7.703125 11.769532 0 17.382813 3.570312 23.878907 7.703125 7.40625 4.710937 15.796875 10.046875 31.933593 10.046875 16.140626 0 24.53125-5.335938 31.9375-10.046875 6.496094-4.132813 12.109376-7.703125 23.878907-7.703125 11.773437 0 17.382812 3.570312 23.882812 7.703125 7.40625 4.710937 15.796875 10.046875 31.933594 10.046875 16.140625 0 24.53125-5.335938 31.9375-10.046875 6.496094-4.132813 12.109375-7.703125 23.878906-7.703125 11.777344 0 17.390625 3.570312 23.890625 7.703125 7.402344 4.710937 15.796875 10.046875 31.9375 10.046875 16.136719 0 24.53125-5.335938 31.9375-10.046875 3.964844-2.519531 7.386719-4.699219 11.980469-6.109375.464844-.140625.90625-.320313 1.355469-.496094v39.601562c0 2.863282-2.332032 5.191407-5.195313 5.191407h-10.035156c-.011719 0-.027344 0-.039063 0h-394.226562c-.011719 0-.027344 0-.039062 0h-10.707032c-2.863281 0-5.191406-2.328125-5.191406-5.191407v-39.601562c.445312.175781.886719.355469 1.351562.5 4.589844 1.40625 8.011719 3.585938 11.976563 6.105469zm-14.140625-75.632813c0-3.976562 3.234375-7.210937 7.210938-7.210937h29.035156l56.324218 29.714843h-85.359374c-3.976563 0-7.210938-3.234374-7.210938-7.210937zm437.90625 189.824219v22.171875c0 31.339844-25.5 56.839844-56.839844 56.839844h-335.078125c-31.339843 0-56.839843-25.5-56.839843-56.839844v-22.171875c0-7.484375 6.089843-13.574219 13.574218-13.574219h41.207032c.25 0 .453124.203125.453124.453125v11.730469c0 17.410156 13.304688 31.675781 30.292969 32.476562 8.800781.410157 17.136719-2.699218 23.492188-8.761718s9.855469-14.242188 9.855469-23.027344v-12.417969c0-.25.207031-.457031.457031-.457031h23.304687c.253906 0 .457032.207031.457032.457031v45.839844c0 17.546875 14.277343 31.820313 31.824218 31.820313s31.820313-14.273438 31.820313-31.820313c0-4.144531-3.359375-7.503906-7.503907-7.503906-4.140624 0-7.5 3.359375-7.5 7.503906 0 9.273437-7.542968 16.816406-16.816406 16.816406-9.273437 0-16.820312-7.542969-16.820312-16.816406v-45.839844c0-8.523437-6.933594-15.457031-15.460938-15.457031h-23.304687c-8.523438 0-15.460938 6.933594-15.460938 15.457031v12.417969c0 4.644531-1.851562 8.964844-5.210937 12.171875-3.355469 3.207031-7.765625 4.867187-12.429688 4.628906-8.820312-.414062-15.996094-8.257812-15.996094-17.484375v-11.734375c0-8.523437-6.933593-15.457031-15.457031-15.457031h-27.84375c-4.476562 0-8.640625-1.785156-11.730469-5.023438-3.089843-3.234374-4.671874-7.492187-4.460937-11.980468.398437-8.492188 7.953125-15.402344 16.839844-15.414063h394.261719c4.464843.003907 8.625 1.785157 11.710937 5.019531 3.085937 3.238282 4.671875 7.492188 4.460937 11.984376-.402343 8.5-7.964843 15.414062-16.863281 15.414062h-213.957031c-8.523438 0-15.457031 6.9375-15.457031 15.460938v11.363281c0 4.144531 3.355469 7.5 7.5 7.5s7.5-3.355469 7.5-7.5v-11.363281c0-.25.203125-.453126.453125-.457032h227.992187c7.484375 0 13.574219 6.089844 13.574219 13.574219zm0 0" fill="#ffffff" data-original="#000000" style="" class=""/><path xmlns="http://www.w3.org/2000/svg" d="m212.105469 51.71875c0 5.171875-4.191407 9.363281-9.363281 9.363281-5.171876 0-9.363282-4.191406-9.363282-9.363281s4.191406-9.363281 9.363282-9.363281c5.171874 0 9.363281 4.191406 9.363281 9.363281zm0 0" fill="#ffffff" data-original="#000000" style="" class=""/><path xmlns="http://www.w3.org/2000/svg" d="m308.988281 51.71875c0 5.171875-4.191406 9.363281-9.363281 9.363281s-9.363281-4.191406-9.363281-9.363281 4.191406-9.363281 9.363281-9.363281 9.363281 4.191406 9.363281 9.363281zm0 0" fill="#ffffff" data-original="#000000" style="" class=""/><path xmlns="http://www.w3.org/2000/svg" d="m141.226562 91.703125c0 5.171875-4.191406 9.363281-9.363281 9.363281s-9.363281-4.191406-9.363281-9.363281 4.191406-9.363281 9.363281-9.363281 9.363281 4.191406 9.363281 9.363281zm0 0" fill="#ffffff" data-original="#000000" style="" class=""/><path xmlns="http://www.w3.org/2000/svg" d="m260.546875 91.703125c0 5.171875-4.191406 9.363281-9.363281 9.363281s-9.363282-4.191406-9.363282-9.363281 4.191407-9.363281 9.363282-9.363281 9.363281 4.191406 9.363281 9.363281zm0 0" fill="#ffffff" data-original="#000000" style="" class=""/><path xmlns="http://www.w3.org/2000/svg" d="m379.867188 91.703125c0 5.171875-4.191407 9.363281-9.363282 9.363281s-9.363281-4.191406-9.363281-9.363281 4.191406-9.363281 9.363281-9.363281 9.363282 4.191406 9.363282 9.363281zm0 0" fill="#ffffff" data-original="#000000" style="" class=""/></g></svg>
