<svg id="Capa_1" enable-background="new 0 0 512 512" height="512" viewBox="0 0 512 512" width="512" xmlns="http://www.w3.org/2000/svg"><g><path d="m495.102 357.94c-.151-17.727-12.471-32.599-29.118-36.456-2.506-18.416-18.325-32.657-37.417-32.657h-9.13l-6.188-25.38c-1.99-8.148-8.275-14.496-16.404-16.566-8.131-2.07-16.681.497-22.319 6.694l-32.114 35.252h-23c-19.096 0-34.918 14.248-37.419 32.669-16.679 3.884-28.966 18.741-29.117 36.444-8.336.288-15.034 7.14-15.034 15.545v43.353c0 52.473 42.69 95.162 95.163 95.162h54.977c4.143 0 7.5-3.357 7.5-7.5s-3.357-7.5-7.5-7.5h-54.977c-44.202 0-80.163-35.961-80.163-80.162v-43.353c0-.315.257-.572.573-.572h241.15c.311 0 .573.262.573.572v43.353c0 41.604-31.186 75.911-72.54 79.802-4.124.388-7.153 4.045-6.765 8.169.388 4.125 4.059 7.158 8.169 6.765 23.478-2.208 45.209-13.043 61.192-30.508 16.085-17.576 24.943-40.386 24.943-64.228v-43.353c-.001-8.405-6.699-15.257-15.035-15.545zm-175.693-54.112h23.644c3.819 0 7.477-1.62 10.015-4.427l32.548-35.727c2.78-3.059 6.188-2.599 7.525-2.257 1.337.341 4.552 1.566 5.534 5.586l6.463 26.507c1.496 6.074 6.91 10.317 13.165 10.317h10.263c10.442 0 19.259 7.066 21.935 16.666h-153.027c2.677-9.599 11.493-16.665 21.935-16.665zm-29.814 31.693c.343-.021.693-.027 1.044-.027h166.697c.351 0 .701.006 1.14.032 12.011.582 21.432 10.385 21.616 22.387h-212.21c.186-12.002 9.607-21.805 21.713-22.392z"/><path d="m153.661 44.883h-5.015c.005-.168.026-.333.026-.503v-20.88c0-12.958-10.542-23.5-23.5-23.5h-31.8c-12.958 0-23.5 10.542-23.5 23.5v20.88c0 7.039 4.72 12.986 11.158 14.87l-1.95 55.848h-40.56c-11.748 0-21.305 9.558-21.305 21.305v7.892c0 9.325 6.026 17.251 14.38 20.136v17.288h-10.231c-10.752 0-19.5 8.748-19.5 19.5v291.278c0 10.752 8.748 19.5 19.5 19.5h175.815c10.752 0 19.5-8.748 19.5-19.5v-291.279c0-10.752-8.748-19.5-19.5-19.5h-10.235v-17.288c7.267-2.509 12.751-8.836 14.059-16.581h.682c15.153 0 27.481-12.323 27.481-27.471 0-20.171-7.855-39.128-22.115-53.376-14.252-14.264-33.213-22.119-53.39-22.119zm-68.79-21.383c0-4.687 3.813-8.5 8.5-8.5h31.8c4.687 0 8.5 3.813 8.5 8.5v20.88c0 .275-.224.5-.5.5h-47.8c-.276 0-.5-.225-.5-.5zm11.146 36.38h26.505l1.929 55.218h-30.363zm-63.802 76.522c0-3.477 2.828-6.305 6.305-6.305h141.5c3.477 0 6.305 2.828 6.305 6.305v7.892c0 3.481-2.828 6.314-6.305 6.314h-141.5c-3.477 0-6.305-2.833-6.305-6.314zm164.964 360.594h-175.815c-2.481 0-4.5-2.019-4.5-4.5v-58.31h119.309c4.142 0 7.5-3.357 7.5-7.5s-3.358-7.5-7.5-7.5h-119.309v-145.773h184.815v145.773h-30.187c-4.142 0-7.5 3.357-7.5 7.5s3.358 7.5 7.5 7.5h30.187v58.31c0 2.482-2.019 4.5-4.5 4.5zm4.5-295.778v57.195h-184.815v-57.195c0-2.481 2.019-4.5 4.5-4.5h175.815c2.481 0 4.5 2.018 4.5 4.5zm-155.084-19.5v-16.109h125.349v16.109zm155.09-48.869h-.682c-1.7-10.058-10.449-17.751-20.983-17.751h-40.56l-1.928-55.215h16.129c16.168 0 31.36 6.294 42.783 17.726 11.428 11.419 17.722 26.607 17.722 42.77 0 6.875-5.599 12.47-12.481 12.47z"/></g></svg>