<svg height="512" viewBox="0 0 61 60" width="512" xmlns="http://www.w3.org/2000/svg"><g id="006---Cutlery" transform="translate(0 -1)"><path id="Shape" d="m44.66 35.81c-1.2874294-5.9292998-6.0200929-10.4990621-11.9908336-11.5781017s-12.0035095 1.5451805-15.2848237 6.6488114c-3.2813143 5.1036308-3.1648577 11.6814168.2950583 16.6656974 3.4599159 4.9842805 9.581796 7.3933083 15.510599 6.1035929 8.0927476-1.7604466 13.2273263-9.7465742 11.47-17.84zm-11.9 15.89c-7.0173793 1.4939248-13.9183256-2.9795894-15.4192504-9.9954748s2.9657025-13.9212912 9.980087-15.4292146c7.0143845-1.5079233 13.924243 2.9518127 15.4391634 9.9646894.7294274 3.376669.0848743 6.904808-1.7913509 9.8054522-1.8762252 2.9006441-4.8298122 4.9352297-8.2086491 5.6545478z"/><path id="Shape" d="m46.59 3.67c-.2785462-1.02089944-1.0423498-1.83892684-2.0417786-2.18672806-.9994288-.34780123-2.1060622-.1806859-2.9582214.44672806-2.73 2.07-3.26 8.39-1.69 17.42-5.5743684-2.822398-12.090932-3.1209222-17.9-.82l3.48-12.64c.103974-.51308503-.2053723-1.01951975-.7093335-1.16125884-.5039611-.14173908-1.031943.12919712-1.2106665.62125884l-3.63 13-2.57-.69 3.64-12.98c.1334387-.35464611.0549677-.7542494-.2026753-1.03209795s-.6501966-.38620971-1.01389-.27987589-.6360462.40909512-.7034347.78197384l-3.62 13-2.58-.69 3.62-13c.0946754-.34476129-.0017689-.71384258-.2530033-.96821451-.2512343-.25437194-.6190902-.35538937-.965-.265-.3459097.09038936-.6173213.35845322-.7119967.70321451l-3.62 13-2.58-.69 3.63-12.97c.1491169-.55228475-.1777153-1.1208831-.73-1.26999999-.5522847-.14911688-1.1208831.17771525-1.27.72999999-4.78 17.27-3.19 11.47-5.67 20.73-.45591549 2.0720594.5644556 4.1871606 2.47 5.12.17.09.23.2.24.17-2.32 7.08-4.62 14.18-6.92 21.25-.20631389.6684127-.12667353 1.3924159.22 2 1.88 3.5 9.14 4.1 9.82.68l.48-2.27c4.0871246 7.5726878 12.2142115 12.0672647 20.8009796 11.5037043s16.0567019-6.0817896 19.1190204-14.1237043l1.07 4.85c.1673596.7296506.6311999 1.3565597 1.28 1.73 3.07 1.89 8.09-.93 7.09-4-7.3-22.23-7.68-24.31-13.41-45.7zm-38.39 47.63c-.0543357.1466392-.16126751.2678286-.3.34-1.49.92-5 0-5.79-1.55-.09405781-.1336628-.13341465-.298246-.11-.46 2.31333333-7.0866667 4.62666667-14.1733333 6.94-21.26.26905272-1.0150035-.2167132-2.0786634-1.16-2.54-1.08833211-.4910702-1.71159105-1.6514799-1.52-2.83l1.56-5.79 11.59 3.11-1.55 5.79c-.4177599 1.1328918-1.5485282 1.840136-2.75 1.72-1.0505958-.0862495-2.0100019.5984367-2.27 1.62-1.84 8.8.85-3.98-4.64 21.85zm34 3.52-1.4-2c-.3259941-.4205337-.9242081-.5121453-1.3611129-.2084432-.4369048.3037022-.5594767.8963478-.2788871 1.3484432l1.39 2c-1.6553368 1.0334188-3.4549662 1.8152802-5.34 2.32l-.52-2.39c-.0520741-.3709999-.3071493-.6817738-.6608755-.8051855-.3537261-.1234117-.7467623-.0387578-1.0183193.2193303s-.3760785.6463136-.2708052 1.0058552l.52 2.4c-1.9246644.3178394-3.8855526.3515317-5.82.1l.43-2.42c.0966498-.5522847-.2727153-1.0783502-.825-1.175s-1.0783502.2727153-1.175.825l-.44 2.41c-1.9025637-.4364311-3.7293483-1.1543372-5.42-2.13l1.33-2.07c.2162134-.3001355.2490845-.6951106.0854584-1.0268576-.1636262-.331747-.4970193-.5460711-.8667566-.5572006-.3697374-.0111296-.715418.1827536-.8987018.5040582l-1.33 2.07c-1.5903858-1.134018-3.0026099-2.4990556-4.19-4.05l2-1.4c.4528735-.3175637.5625637-.9421265.245-1.395s-.9421265-.5625637-1.395-.245l-2 1.41c-.6680742-1.0711805-1.2339001-2.2028324-1.69-3.38.16-.74.32-1.47.47-2.21l1.31-.28c.5522847-.1159798.9059798-.6577153.79-1.21s-.6577153-.9059798-1.21-.79l-.43.1c.8533333-4 1.6933333-8 2.52-12 .08-.08.28-.07.38-.07 2.0929684.1156826 3.9984088-1.2012524 4.63-3.2l1.53-5.52c1.1213996-.5517691 2.293519-.9938256 3.5-1.32l.52 2.42c.0768121.3572656.3383883.6464139.6861955.7585255.3478071.1121115.729005.030154 1-.2150001.270995-.245154.3906166-.6162598.3138045-.9735254l-.52-2.4c1.9246644-.3178394 3.8855526-.3515317 5.82-.1l-.44 2.42c-.04653.2612525.0126875.5302868.1646117.7478573.1519243.2175706.3840963.3658348.6453883.4121427.5110481.0769754.9965614-.2481452 1.12-.75l.44-2.41c1.9151263.4168568 3.756025 1.1215231 5.46 2.09l-1.32 2.06c-.2634624.4618613-.1194165 1.0491348.3278566 1.3366675s1.041346.1747642 1.3521434-.2566675l.53-.83c.3 1.28.62 2.59 1 4 .74 2.74 5 2.85 5.18 3 .2250705.5520705.3633729 1.1356394.41 1.73l.33 1.49-.85.18c-.5522847.0579899-.9529898.5527153-.8949999 1.105s.5527152.9529899 1.1049999.895c.365841-.0356197.7274676-.105936 1.08-.21l1.19 5.41-2-.35c-.5407885-.0973173-1.0587916.2599262-1.16.8-.04653.2612525.0126875.5302868.1646117.7478573.1519243.2175706.3840963.3658348.6453883.4121427l2.41.44c-.4580424 1.8845001-1.1926803 3.6907657-2.18 5.36l-2.06-1.33c-.3001355-.2162134-.6951106-.2490845-1.0268576-.0854584-.331747.1636262-.5460711.4970193-.5572006.8667566-.0111296.3697374.1827536.715418.5040582.8987018l2.06 1.33c-1.1344935 1.5722197-2.4959842 2.9674107-4.04 4.14zm0-34c-2-10-1.29-15.86.57-17.31.3257583-.23400914.7463077-.29138339 1.1228449-.15318622.3765373.13819717.6601215.45400347.7571551.84318622 5.92 22.08 6 23.06 13.23 45.23.23.71.32.79.11 1.2-.9241478 1.2402224-2.5772229 1.6865527-4 1.08-.1806083-.0945747-.3170101-.2561031-.38-.45-4.51-21-4.26-19.27-4.3-19.56-.54-3.46-2.12-2.51-4-3.17-.86-.3-1.39-.69-1.5-1.1-.74-2.55-1.17-4.49-1.6-6.62z"/><path id="Shape" d="m28 28c-4.8682388 1.1196292-8.4855674 5.2112298-9 10.18-.0772331.5467395.3032837 1.0526029.85 1.13.2641662.0430545.5345666-.0215856.7507006-.1794575.2161341-.1578718.3599607-.3957975.3992994-.6605425 1-7.3 7.08-8.44 7.34-8.48.5435969-.0917721.9103856-.6061708.82-1.15-.039191-.2667921-.1844672-.5064494-.4028724-.6646048-.2184051-.1581555-.4914262-.2214032-.7571276-.1753952z"/></g></svg>