<?xml version="1.0" encoding="iso-8859-1"?>
<!-- Generator: Adobe Illustrator 18.0.0, SVG Export Plug-In . SVG Version: 6.00 Build 0)  -->
<!DOCTYPE svg PUBLIC "-//W3C//DTD SVG 1.1//EN" "http://www.w3.org/Graphics/SVG/1.1/DTD/svg11.dtd">
<svg version="1.1" id="Capa_1" xmlns="http://www.w3.org/2000/svg" xmlns:xlink="http://www.w3.org/1999/xlink" x="0px" y="0px"
	 viewBox="0 0 299.234 299.234" style="enable-background:new 0 0 299.234 299.234;" xml:space="preserve">
<g id="Refresco">
	<path d="M230.7,12V0h-47c-2.802,0-5.231,1.939-5.852,4.672l-14.56,64.157H82.086c-7.473,0-13.552,6.381-13.552,14.225v21.553
		c0,3.313,2.687,6,6,6h7.443l9.718,182.946c0.169,3.186,2.802,5.682,5.992,5.682h97.936c3.19,0,5.822-2.496,5.991-5.682
		l9.718-182.946h7.443c3.313,0,6-2.687,6-6V83.054c0-7.844-6.079-14.225-13.552-14.225h-35.628L188.491,12H230.7z M189.933,287.234
		h-86.556l-9.363-176.261h105.281L189.933,287.234z M212.775,83.054v15.553H80.534V83.054c0-1.311,0.818-2.225,1.552-2.225h129.137
		C211.957,80.829,212.775,81.743,212.775,83.054z"/>
</g>
<g>
</g>
<g>
</g>
<g>
</g>
<g>
</g>
<g>
</g>
<g>
</g>
<g>
</g>
<g>
</g>
<g>
</g>
<g>
</g>
<g>
</g>
<g>
</g>
<g>
</g>
<g>
</g>
<g>
</g>
</svg>
